The Girl With The Dragon Tattoo 2011 DVDSCR XViD AC3 - HOPE

Plot:

Journalist Mikael Blomkvist is aided in his search for a woman who has been missing for forty years by Lisbeth Salander, a young computer hacker.

IMDB:

www.imdb.com/title/tt1568346/

Information:

Format                           : AVI
Format/Info                      : Audio Video Interleave
File size                        : 1.51 GiB
Duration                         : 2h 38mn
Overall bit rate                 : 1 370 Kbps
Writing application              : VirtualDubMod 1.5.4.1 (build 2178/release)
Writing library                  : VirtualDub build 31536/release

Video
ID                               : 0
Format                           : MPEG-4 Visual
Format profile                   : Advanced Simple@L5
Format settings, BVOP            : 2
Format settings, QPel            : No
Format settings, GMC             : No warppoints
Format settings, Matrix          : Default (H.263)
Muxing mode                      : Packed bitstream
Codec ID                         : XVID
Codec ID/Hint                    : XviD
Duration                         : 2h 38mn
Bit rate                         : 913 Kbps
Width                            : 720 pixels
Height                           : 304 pixels
Display aspect ratio             : 2.35:1
Frame rate                       : 23.976 fps
Color space                      : YUV
Chroma subsampling               : 4:2:0
Bit depth                        : 8 bits
Scan type                        : Progressive
Compression mode                 : Lossy
Bits/(Pixel*Frame)               : 0.174
Stream size                      : 1.01 GiB (67%)
Writing library                  : XviD 64

Audio
ID                               : 1
Format                           : AC-3
Format/Info                      : Audio Coding 3
Mode extension                   : CM (complete main)
Codec ID                         : 2000
Duration                         : 2h 38mn
Bit rate mode                    : Constant
Bit rate                         : 448 Kbps
Channel(s)                       : 6 channels
Channel positions                : Front: L C R, Side: L R, LFE
Sampling rate                    : 48.0 KHz
Bit depth                        : 16 bits
Compression mode                 : Lossy
Stream size                      : 507 MiB (33%)
Alignment                        : Split accross interleaves
Interleave, duration             : 42 ms (1.00 video frame)
Interleave, preload duration     : 500 ms


Notes:
Ok another DVDSCR, but source size was small and was an AVI so yea yea i know 
a F**king re-encoded release that someone will bitch about anyway i dont care lol... appended some filters and cleaned video up making for a better output hopefully you think the same anyway enjoy for now... a V2 rip may come if the 
DVDR is shared... audio was untouched so 5.1CH AC3 enjoy

btw encoding done in HQ 2pass mode unlike some  

Video Source &gt; DvDSCR Riskee... Thanks
Audio Source &gt; DvDSCR Riskee... Thanks

Respects to 26K, DTRG, JCRG, GooN, ViSiON, SANTi, INSPiRAL, REFiLL...
And many others in the P2P and Scene world


Poster:

 
http://i.imgur.com/CYtH9.jpg


Screens:

 
http://i.imgur.com/d1gUC.jpg

 
http://i.imgur.com/GlhH2.jpg

 
http://i.imgur.com/iKTp2.jpg


ENJOY!